<svg height="512" viewBox="0 0 512 512" width="512" xmlns="http://www.w3.org/2000/svg"><g id="Fill_out_line" data-name="Fill out line"><path d="m460 236-116 116h-64l-24 24-88-88 104-104-14.14-23.57-9.86-16.43 51.66-51.66 4.34-4.34z" fill="#f6d0b1"/><path d="m304 168.57v22.86a136.57629 136.57629 0 0 1 -40 96.57l-48 48-48-48 24-24v-54.9a127.55183 127.55183 0 0 1 4.5-33.6 127.70654 127.70654 0 0 0 -32.9-123.9l-11.6-11.6a56.565 56.565 0 0 1 80 0l32 32c2.90991 2.91 5.67993 5.95 8.29 9.09a136.50481 136.50481 0 0 1 31.71 87.48z" fill="#f6d0b1"/><path d="m181.373 271.147h45.255v169.706h-45.255z" fill="#c6d6e2" transform="matrix(.707 -.707 .707 .707 -191.98 248.52)"/><path d="m216 496 48-48-144-144-104 104v88z" fill="#8ccee9"/><g fill="#f6d0b1"><rect height="56.569" rx="28.284" transform="matrix(.707 -.707 .707 .707 17.844 251.078)" width="124.451" x="249.775" y="75.716"/><path d="m318.05885 115.71573h67.8823a28.28424 28.28424 0 0 1 28.28425 28.28427 28.28424 28.28424 0 0 1 -28.28424 28.28424h-67.88232a28.28424 28.28424 0 0 1 -28.28424-28.28424 28.28425 28.28425 0 0 1 28.28425-28.28425z" transform="matrix(.707 -.707 .707 .707 1.275 291.078)"/><rect height="56.569" rx="28.284" transform="matrix(.707 -.707 .707 .707 -15.294 331.078)" width="124.451" x="329.775" y="155.716"/><rect height="56.569" rx="28.284" transform="matrix(.707 -.707 .707 .707 -31.862 371.078)" width="124.451" x="369.775" y="195.716"/></g><path d="m376 408a48 48 0 0 0 48-48 48 48 0 0 0 48 48 48 48 0 0 0 -48 48 48 48 0 0 0 -48-48z" fill="#f0c033"/><path d="m408 64a40 40 0 0 0 40-40 40 40 0 0 0 40 40 40 40 0 0 0 -40 40 40 40 0 0 0 -40-40z" fill="#f0c033"/><path d="m24 168h.00005a48 48 0 0 0 48-47.99995 48 48 0 0 0 48 48 48 48 0 0 0 -48.00005 47.99995 48 48 0 0 0 -47.99995-48z" fill="#f0c033"/><path d="m452.04468 163.95532a36.22276 36.22276 0 0 0 -39.97876-40.0025 36.91618 36.91618 0 0 0 .21826-3.95282 36.28435 36.28435 0 0 0 -36.28418-36.28418 36.89946 36.89946 0 0 0 -3.95276.21832 36.26433 36.26433 0 0 0 -61.704-29.59088l-27.36324 27.36334a144.80068 144.80068 0 0 0 -13.32324-15.36334l-32-32a64.56843 64.56843 0 0 0 -91.31348 0 7.99915 7.99915 0 0 0 0 11.31348l11.5952 11.59526a119.96951 119.96951 0 0 1 30.84326 116.14356 135.73369 135.73369 0 0 0 -4.78174 35.70698v51.58346l-16.00006 16.00048-2.3432-2.34326a8 8 0 0 0 -11.31348 0l-26.34326 26.3433-2.34326-2.34326a8 8 0 0 0 -11.31348 0l-96 96 11.31348 11.31348 90.34326-90.34326 132.68652 132.68652-34.34326 34.34326 11.31348 11.31348 40-40a7.99915 7.99915 0 0 0 0-11.31348l-10.34326-10.34326 26.34326-26.34326a7.99915 7.99915 0 0 0 0-11.31348l-18.34326-18.34326 16.00052-16h60.686a7.99877 7.99877 0 0 0 5.65674-2.34326l80-80-.31372-.31372a36.38614 36.38614 0 0 0 4.31372-3.68628l48-48a36.26414 36.26414 0 0 0 -29.61206-61.70142zm-36.04468-24.23022a20.2749 20.2749 0 0 1 14.34326 34.61816l-48 48a20.28443 20.28443 0 0 1 -28.68652-28.68652l48-48a20.22313 20.22313 0 0 1 14.34326-5.93164zm-25.65674-34.06836a20.30779 20.30779 0 0 1 0 28.68652l-48 48a20.28443 20.28443 0 0 1 -28.68652-28.68652l48-48a20.30868 20.30868 0 0 1 28.68652 0zm-68.68652-40a20.28443 20.28443 0 0 1 28.68652 28.68652l-48 48a20.28443 20.28443 0 1 1 -28.68652-28.68652zm-73.65674 355.02978-108.68652-108.68652 20.68652-20.68652 108.68652 108.68652zm92.686-76.68652h-60.686a7.99877 7.99877 0 0 0 -5.65674 2.34326l-18.34326 18.34326-76.68652-76.68652 18.34326-18.34326a7.99877 7.99877 0 0 0 2.34326-5.65674v-54.89746a119.71407 119.71407 0 0 1 4.21826-31.49756 136.00375 136.00375 0 0 0 -34.96626-131.6665l-5.47265-5.47266a48.64871 48.64871 0 0 1 62.564 5.19092l32 32a128.8397 128.8397 0 0 1 13.20215 15.48437l-9.20215 9.20215a36.25435 36.25435 0 0 0 29.59085 61.70374 36.88922 36.88922 0 0 0 -.21838 3.953 36.09939 36.09939 0 0 0 4.28418 17.13757v6.29407a127.72812 127.72812 0 0 1 -37.65674 90.91162l11.31348 11.31348a143.49632 143.49632 0 0 0 42.05847-93.2237 36.11894 36.11894 0 0 0 16.28479 3.85114 36.89946 36.89946 0 0 0 3.95276-.21832 36.21291 36.21291 0 0 0 40.00256 39.97857 36.22022 36.22022 0 0 0 29.12476 39.56189zm129.65726-129.65674-48 48a20.28443 20.28443 0 0 1 -28.68652-28.68652l48-48a20.28443 20.28443 0 0 1 28.68652 28.68652z"/><path d="m472 400a40.04521 40.04521 0 0 1 -40-40 8 8 0 0 0 -16 0 40.04521 40.04521 0 0 1 -40 40 8 8 0 0 0 0 16 40.04521 40.04521 0 0 1 40 40 8 8 0 0 0 16 0 40.04521 40.04521 0 0 1 40-40 8 8 0 0 0 0-16zm-48 27.18018a56.45138 56.45138 0 0 0 -19.18018-19.18018 56.45138 56.45138 0 0 0 19.18018-19.18018 56.45138 56.45138 0 0 0 19.18018 19.18018 56.45138 56.45138 0 0 0 -19.18018 19.18018z"/><path d="m488 56a32.036 32.036 0 0 1 -32-32 8 8 0 0 0 -16 0 32.036 32.036 0 0 1 -32 32 8 8 0 0 0 0 16 32.036 32.036 0 0 1 32 32 8 8 0 0 0 16 0 32.036 32.036 0 0 1 32-32 8 8 0 0 0 0-16zm-40 21.49268a48.39193 48.39193 0 0 0 -13.49268-13.49268 48.39193 48.39193 0 0 0 13.49268-13.49268 48.39193 48.39193 0 0 0 13.49268 13.49268 48.39193 48.39193 0 0 0 -13.49268 13.49268z"/><path d="m64 216a8 8 0 0 0 16 0 40.04521 40.04521 0 0 1 40-40 8 8 0 0 0 0-16 40.04521 40.04521 0 0 1 -40-40 8 8 0 0 0 -16 0 40.04521 40.04521 0 0 1 -40 40 8 8 0 0 0 0 16 40.04521 40.04521 0 0 1 40 40zm8-67.18018a56.45138 56.45138 0 0 0 19.18018 19.18018 56.45138 56.45138 0 0 0 -19.18018 19.18018 56.45138 56.45138 0 0 0 -19.18018-19.18018 56.45138 56.45138 0 0 0 19.18018-19.18018z"/></g></svg>